<?xml version="1.0" encoding="UTF-8" standalone="no"?><svg xmlns="http://www.w3.org/2000/svg" xmlns:xlink="http://www.w3.org/1999/xlink" contentScriptType="application/ecmascript" contentStyleType="text/css" height="310px" preserveAspectRatio="none" style="width:343px;height:310px;" version="1.1" viewBox="0 0 343 310" width="343px" zoomAndPan="magnify"><defs><filter height="300%" id="f11ntcptvyfxr5" width="300%" x="-1" y="-1"><feGaussianBlur result="blurOut" stdDeviation="2.0"/><feColorMatrix in="blurOut" result="blurOut2" type="matrix" values="0 0 0 0 0 0 0 0 0 0 0 0 0 0 0 0 0 0 .4 0"/><feOffset dx="4.0" dy="4.0" in="blurOut2" result="blurOut3"/><feBlend in="SourceGraphic" in2="blurOut3" mode="normal"/></filter></defs><g><line style="stroke: #A80036; stroke-width: 1.0; stroke-dasharray: 5.0,5.0;" x1="30" x2="30" y1="86.2969" y2="222.8281"/><line style="stroke: #A80036; stroke-width: 1.0; stroke-dasharray: 5.0,5.0;" x1="177" x2="177" y1="86.2969" y2="222.8281"/><line style="stroke: #A80036; stroke-width: 1.0; stroke-dasharray: 5.0,5.0;" x1="313.5" x2="313.5" y1="86.2969" y2="222.8281"/><text fill="#000000" font-family="sans-serif" font-size="14" lengthAdjust="spacingAndGlyphs" textLength="39" x="8" y="82.9951">Client</text><ellipse cx="30.5" cy="13" fill="#FEFECE" filter="url(#f11ntcptvyfxr5)" rx="8" ry="8" style="stroke: #A80036; stroke-width: 2.0;"/><path d="M30.5,21 L30.5,48 M17.5,29 L43.5,29 M30.5,48 L17.5,63 M30.5,48 L43.5,63 " fill="none" filter="url(#f11ntcptvyfxr5)" style="stroke: #A80036; stroke-width: 2.0;"/><text fill="#000000" font-family="sans-serif" font-size="14" lengthAdjust="spacingAndGlyphs" textLength="39" x="8" y="234.8232">Client</text><ellipse cx="30.5" cy="248.125" fill="#FEFECE" filter="url(#f11ntcptvyfxr5)" rx="8" ry="8" style="stroke: #A80036; stroke-width: 2.0;"/><path d="M30.5,256.125 L30.5,283.125 M17.5,264.125 L43.5,264.125 M30.5,283.125 L17.5,298.125 M30.5,283.125 L43.5,298.125 " fill="none" filter="url(#f11ntcptvyfxr5)" style="stroke: #A80036; stroke-width: 2.0;"/><text fill="#000000" font-family="sans-serif" font-size="14" lengthAdjust="spacingAndGlyphs" textLength="21" x="164" y="82.9951">API</text><path d="M157,42 L157,66 M157,54 L174,54 " fill="none" filter="url(#f11ntcptvyfxr5)" style="stroke: #A80036; stroke-width: 2.0;"/><ellipse cx="186" cy="54" fill="#FEFECE" filter="url(#f11ntcptvyfxr5)" rx="12" ry="12" style="stroke: #A80036; stroke-width: 2.0;"/><text fill="#000000" font-family="sans-serif" font-size="14" lengthAdjust="spacingAndGlyphs" textLength="21" x="164" y="234.8232">API</text><path d="M157,242.125 L157,266.125 M157,254.125 L174,254.125 " fill="none" filter="url(#f11ntcptvyfxr5)" style="stroke: #A80036; stroke-width: 2.0;"/><ellipse cx="186" cy="254.125" fill="#FEFECE" filter="url(#f11ntcptvyfxr5)" rx="12" ry="12" style="stroke: #A80036; stroke-width: 2.0;"/><text fill="#000000" font-family="sans-serif" font-size="14" lengthAdjust="spacingAndGlyphs" textLength="21" x="300" y="82.9951">DB</text><path d="M295.5,34 C295.5,24 313.5,24 313.5,24 C313.5,24 331.5,24 331.5,34 L331.5,60 C331.5,70 313.5,70 313.5,70 C313.5,70 295.5,70 295.5,60 L295.5,34 " fill="#FEFECE" filter="url(#f11ntcptvyfxr5)" style="stroke: #000000; stroke-width: 1.5;"/><path d="M295.5,34 C295.5,44 313.5,44 313.5,44 C313.5,44 331.5,44 331.5,34 " fill="none" style="stroke: #000000; stroke-width: 1.5;"/><text fill="#000000" font-family="sans-serif" font-size="14" lengthAdjust="spacingAndGlyphs" textLength="21" x="300" y="234.8232">DB</text><path d="M295.5,248.125 C295.5,238.125 313.5,238.125 313.5,238.125 C313.5,238.125 331.5,238.125 331.5,248.125 L331.5,274.125 C331.5,284.125 313.5,284.125 313.5,284.125 C313.5,284.125 295.5,284.125 295.5,274.125 L295.5,248.125 " fill="#FEFECE" filter="url(#f11ntcptvyfxr5)" style="stroke: #000000; stroke-width: 1.5;"/><path d="M295.5,248.125 C295.5,258.125 313.5,258.125 313.5,258.125 C313.5,258.125 331.5,258.125 331.5,248.125 " fill="none" style="stroke: #000000; stroke-width: 1.5;"/><polygon fill="#A80036" points="165.5,113.4297,175.5,117.4297,165.5,121.4297,169.5,117.4297" style="stroke: #A80036; stroke-width: 1.0;"/><line style="stroke: #A80036; stroke-width: 1.0;" x1="30.5" x2="171.5" y1="117.4297" y2="117.4297"/><text fill="#000000" font-family="sans-serif" font-size="13" lengthAdjust="spacingAndGlyphs" textLength="72" x="37.5" y="112.3638">POST /login</text><polygon fill="#A80036" points="301.5,142.5625,311.5,146.5625,301.5,150.5625,305.5,146.5625" style="stroke: #A80036; stroke-width: 1.0;"/><line style="stroke: #A80036; stroke-width: 1.0;" x1="177.5" x2="307.5" y1="146.5625" y2="146.5625"/><text fill="#000000" font-family="sans-serif" font-size="13" lengthAdjust="spacingAndGlyphs" textLength="112" x="184.5" y="141.4966">Verify Credentials</text><polygon fill="#A80036" points="188.5,171.6953,178.5,175.6953,188.5,179.6953,184.5,175.6953" style="stroke: #A80036; stroke-width: 1.0;"/><line style="stroke: #A80036; stroke-width: 1.0; stroke-dasharray: 2.0,2.0;" x1="182.5" x2="312.5" y1="175.6953" y2="175.6953"/><text fill="#000000" font-family="sans-serif" font-size="13" lengthAdjust="spacingAndGlyphs" textLength="78" x="194.5" y="170.6294">User Record</text><polygon fill="#A80036" points="41.5,200.8281,31.5,204.8281,41.5,208.8281,37.5,204.8281" style="stroke: #A80036; stroke-width: 1.0;"/><line style="stroke: #A80036; stroke-width: 1.0; stroke-dasharray: 2.0,2.0;" x1="35.5" x2="176.5" y1="204.8281" y2="204.8281"/><text fill="#000000" font-family="sans-serif" font-size="13" lengthAdjust="spacingAndGlyphs" textLength="123" x="47.5" y="199.7622">200 OK (JWT Token)</text><!--MD5=[73a5628aa19cd233120f5a95541c52d1]
@startuml
actor Client
boundary API
database DB

Client -> API : POST /login
API -> DB : Verify Credentials
DB - -> API : User Record
API - -> Client : 200 OK (JWT Token)
@enduml

PlantUML version 1.2020.02(Sun Mar 01 10:22:07 UTC 2020)
(GPL source distribution)
Java Runtime: OpenJDK Runtime Environment
JVM: OpenJDK 64-Bit Server VM
Java Version: 17.0.20.1+1
Operating System: Linux
Default Encoding: UTF-8
Language: en
Country: null
--></g></svg>